<svg xmlns="http://www.w3.org/2000/svg" width="60" height="100" viewBox="0 0 61 110" fill="none">
  <path fill-rule="evenodd" clip-rule="evenodd" d="M1.63098 97.6984C3.4332 99.4339 6.3479 99.4339 8.14567 97.6984L46.2503 60.9255C47.1033 60.1149 47.7825 59.1393 48.2466 58.058C48.7107 56.9768 48.95 55.8124 48.95 54.6357C48.95 53.4591 48.7107 52.2947 48.2466 51.2134C47.7825 50.1322 47.1033 49.1566 46.2503 48.346L7.86977 11.3016C6.99871 10.4737 5.84519 10.0084 4.64348 10.0001C3.44176 9.99185 2.28195 10.4413 1.39959 11.2571C0.962479 11.66 0.612735 12.1483 0.372014 12.6918C0.131292 13.2354 0.00471812 13.8225 0.000129405 14.417C-0.00445931 15.0114 0.113035 15.6004 0.345337 16.1476C0.577639 16.6948 0.919802 17.1884 1.35064 17.598L36.4783 51.492C36.9051 51.8973 37.245 52.3852 37.4773 52.9261C37.7095 53.4669 37.8293 54.0494 37.8293 54.638C37.8293 55.2266 37.7095 55.809 37.4773 56.3499C37.245 56.8907 36.9051 57.3786 36.4783 57.784L1.63098 91.4109C1.20428 91.8158 0.864477 92.3034 0.632269 92.8439C0.400061 93.3843 0.280311 93.9664 0.280311 94.5547C0.280311 95.1429 0.400061 95.725 0.632269 96.2655C0.864477 96.806 1.20428 97.2935 1.63098 97.6984Z" fill="#50369E"/>
</svg>
