 <svg xmlns="http://www.w3.org/2000/svg" width="60" height="100" viewBox="0 0 61 110" fill="none">
  <path fill-rule="evenodd" clip-rule="evenodd" d="M53.3198 11.3003C52.4408 10.4654 51.2747 10 50.0624 10C48.8501 10 47.6841 10.4654 46.805 11.3003L8.69971 48.075C7.84674 48.8856 7.16755 49.8613 6.70344 50.9426C6.23933 52.0239 6 53.1884 6 54.3651C6 55.5418 6.23933 56.7062 6.70344 57.7876C7.16755 58.8689 7.84674 59.8445 8.69971 60.6552L47.0809 97.7014C48.8609 99.4146 51.7445 99.4369 53.5512 97.7459C53.9886 97.343 54.3386 96.8545 54.5793 96.3108C54.82 95.767 54.9464 95.1796 54.9505 94.5849C54.9547 93.9903 54.8366 93.4011 54.6035 92.854C54.3705 92.3069 54.0274 91.8136 53.5957 91.4046L18.4719 57.509C18.0451 57.1037 17.7052 56.6157 17.4729 56.0748C17.2407 55.534 17.1209 54.9515 17.1209 54.3629C17.1209 53.7742 17.2407 53.1917 17.4729 52.6509C17.7052 52.11 18.0451 51.6221 18.4719 51.2167L53.3154 17.5881C53.7421 17.1831 54.0819 16.6956 54.3141 16.1551C54.5463 15.6146 54.6661 15.0324 54.6661 14.4442C54.6661 13.8559 54.5463 13.2738 54.3141 12.7333C54.0819 12.1928 53.7465 11.7052 53.3198 11.3003Z" fill="#50369E"/>
</svg>
