<svg xmlns="http://www.w3.org/2000/svg" width="56" height="52" viewBox="0 0 72 68" fill="none">
  <path d="M37.125 63.7501C28.4723 63.7501 20.174 60.5038 14.0556 54.7253C7.93727 48.9468 4.5 41.1096 4.5 32.9376C4.5 20.4532 12.0938 9.25977 23.8514 4.42673C24.2658 4.25616 24.725 4.20743 25.1691 4.28688C25.6132 4.36633 26.0217 4.57028 26.3413 4.87216C26.661 5.17403 26.8769 5.55983 26.961 5.97928C27.0452 6.39874 26.9936 6.8324 26.813 7.22376C25.463 10.1509 24.75 13.9002 24.75 18.0626C24.75 32.7091 37.3669 44.6251 52.875 44.6251C57.2822 44.6251 61.252 43.9517 64.3514 42.6767C64.7658 42.5062 65.225 42.4574 65.6691 42.5369C66.1132 42.6163 66.5217 42.8203 66.8413 43.1222C67.161 43.424 67.3769 43.8098 67.461 44.2293C67.5452 44.6487 67.4936 45.0824 67.313 45.4738C62.1956 56.5782 50.3438 63.7501 37.125 63.7501Z" fill="#50369E"/>
</svg>
