 <svg xmlns="http://www.w3.org/2000/svg" width="56" height="52" viewBox="0 0 72 68" fill="none" class="mode">
        <path d="M36 15.6719C35.1795 15.6719 34.3926 15.364 33.8124 14.8161C33.2322 14.2681 32.9062 13.5249 32.9062 12.75V6.375C32.9062 5.60007 33.2322 4.85688 33.8124 4.30892C34.3926 3.76096 35.1795 3.45313 36 3.45312C36.8205 3.45313 37.6074 3.76096 38.1876 4.30892C38.7678 4.85688 39.0938 5.60007 39.0938 6.375V12.75C39.0938 13.5249 38.7678 14.2681 38.1876 14.8161C37.6074 15.364 36.8205 15.6719 36 15.6719ZM36 64.5469C35.1795 64.5469 34.3926 64.239 33.8124 63.6911C33.2322 63.1431 32.9062 62.3999 32.9062 61.625V55.25C32.9062 54.4751 33.2322 53.7319 33.8124 53.1839C34.3926 52.636 35.1795 52.3281 36 52.3281C36.8205 52.3281 37.6074 52.636 38.1876 53.1839C38.7678 53.7319 39.0938 54.4751 39.0938 55.25V61.625C39.0938 62.3999 38.7678 63.1431 38.1876 63.6911C37.6074 64.239 36.8205 64.5469 36 64.5469ZM51.9103 21.8955C51.2986 21.8954 50.7006 21.724 50.1919 21.4031C49.6833 21.0821 49.2868 20.6259 49.0526 20.0921C48.8184 19.5584 48.757 18.971 48.8762 18.4044C48.9954 17.8377 49.2898 17.3171 49.7222 16.9084L54.495 12.4007C55.0777 11.8647 55.8605 11.5669 56.674 11.572C57.4874 11.5771 58.266 11.8845 58.8412 12.4277C59.4164 12.971 59.7419 13.7063 59.7473 14.4746C59.7527 15.2428 59.4374 15.9821 58.8698 16.5325L54.097 21.0402C53.8101 21.3117 53.4693 21.527 53.094 21.6738C52.7188 21.8206 52.3165 21.8959 51.9103 21.8955ZM15.3169 56.4559C14.705 56.4559 14.1068 56.2844 13.5981 55.9633C13.0893 55.6421 12.6929 55.1857 12.4588 54.6517C12.2247 54.1178 12.1636 53.5302 12.2831 52.9634C12.4026 52.3966 12.6974 51.8761 13.1302 51.4675L17.903 46.9598C18.1888 46.6827 18.5301 46.4618 18.9071 46.3102C19.2841 46.1586 19.6891 46.0793 20.0988 46.0767C20.5085 46.0742 20.9147 46.1485 21.2937 46.2954C21.6727 46.4423 22.0171 46.6588 22.3068 46.9325C22.5965 47.2061 22.8258 47.5313 22.9813 47.8893C23.1369 48.2472 23.2156 48.6308 23.2129 49.0178C23.2102 49.4047 23.1261 49.7873 22.9656 50.1433C22.8051 50.4993 22.5713 50.8217 22.2778 51.0916L17.505 55.5993C17.218 55.8712 16.877 56.0868 16.5014 56.2338C16.1259 56.3808 15.7234 56.4563 15.3169 56.4559ZM65.25 36.9219H58.5C57.6795 36.9219 56.8926 36.614 56.3124 36.0661C55.7322 35.5181 55.4062 34.7749 55.4062 34C55.4062 33.2251 55.7322 32.4819 56.3124 31.9339C56.8926 31.386 57.6795 31.0781 58.5 31.0781H65.25C66.0705 31.0781 66.8574 31.386 67.4376 31.9339C68.0178 32.4819 68.3438 33.2251 68.3438 34C68.3438 34.7749 68.0178 35.5181 67.4376 36.0661C66.8574 36.614 66.0705 36.9219 65.25 36.9219ZM13.5 36.9219H6.75C5.92949 36.9219 5.14258 36.614 4.56239 36.0661C3.9822 35.5181 3.65625 34.7749 3.65625 34C3.65625 33.2251 3.9822 32.4819 4.56239 31.9339C5.14258 31.386 5.92949 31.0781 6.75 31.0781H13.5C14.3205 31.0781 15.1074 31.386 15.6876 31.9339C16.2678 32.4819 16.5938 33.2251 16.5938 34C16.5938 34.7749 16.2678 35.5181 15.6876 36.0661C15.1074 36.614 14.3205 36.9219 13.5 36.9219ZM56.6831 56.4559C56.2766 56.4563 55.8741 56.3808 55.4986 56.2338C55.123 56.0868 54.782 55.8712 54.495 55.5993L49.7222 51.0916C49.1546 50.5413 48.8394 49.802 48.8447 49.0337C48.8501 48.2655 49.1756 47.5301 49.7508 46.9869C50.326 46.4436 51.1046 46.1362 51.918 46.1311C52.7315 46.1261 53.5143 46.4238 54.097 46.9598L58.8698 51.4675C59.3026 51.8761 59.5974 52.3966 59.7169 52.9634C59.8364 53.5302 59.7753 54.1178 59.5412 54.6517C59.3071 55.1857 58.9107 55.6421 58.4019 55.9633C57.8932 56.2844 57.295 56.4559 56.6831 56.4559ZM20.0897 21.8955C19.6835 21.8962 19.2811 21.821 18.9058 21.6742C18.5305 21.5274 18.1897 21.3119 17.903 21.0402L13.1302 16.5325C12.5626 15.9821 12.2473 15.2428 12.2527 14.4746C12.2581 13.7063 12.5836 12.971 13.1588 12.4277C13.734 11.8845 14.5126 11.5771 15.326 11.572C16.1395 11.5669 16.9223 11.8647 17.505 12.4007L22.2778 16.9084C22.7102 17.3171 23.0046 17.8377 23.1238 18.4044C23.243 18.971 23.1816 19.5584 22.9474 20.0921C22.7132 20.6259 22.3167 21.0821 21.8081 21.4031C21.2994 21.724 20.7014 21.8954 20.0897 21.8955ZM36 47.5469C33.1631 47.5469 30.3899 46.7524 28.031 45.2638C25.6722 43.7753 23.8337 41.6595 22.7481 39.1842C21.6625 36.7088 21.3784 33.985 21.9319 31.3571C22.4853 28.7293 23.8514 26.3155 25.8574 24.4209C27.8634 22.5263 30.4193 21.2361 33.2017 20.7134C35.9841 20.1907 38.8681 20.459 41.4891 21.4843C44.1101 22.5096 46.3503 24.246 47.9264 26.4738C49.5025 28.7015 50.3438 31.3207 50.3438 34C50.3393 37.5916 48.8266 41.0348 46.1376 43.5744C43.4486 46.114 39.8028 47.5427 36 47.5469Z" fill="#50369E"/>
      </svg>
